<svg version="1.0" preserveAspectRatio="xMidYMid meet" viewBox="87 77.999998128 202.5 191.24999541000003" zoomAndPan="magnify" xmlns:xlink="http://www.w3.org/1999/xlink" xmlns="http://www.w3.org/2000/svg" style="max-height: 500px" width="202.5" height="191.24999541000003"><defs><clipPath id="3f6ed2281b"><path clip-rule="nonzero" d="M 96.726562 84.402344 L 278.273438 84.402344 L 278.273438 265.949219 L 96.726562 265.949219 Z M 96.726562 84.402344"/></clipPath><clipPath id="b63bae7aa6"><path clip-rule="nonzero" d="M 187.5 84.402344 C 137.367188 84.402344 96.726562 125.042969 96.726562 175.175781 C 96.726562 225.308594 137.367188 265.949219 187.5 265.949219 C 237.632812 265.949219 278.273438 225.308594 278.273438 175.175781 C 278.273438 125.042969 237.632812 84.402344 187.5 84.402344 Z M 187.5 84.402344"/></clipPath><clipPath id="375fc5892b"><path clip-rule="nonzero" d="M 119 162 L 200 162 L 200 246 L 119 246 Z M 119 162"/></clipPath><clipPath id="0e23b033e9"><path clip-rule="nonzero" d="M 102.507812 172.984375 L 162.054688 123.773438 L 235.632812 212.800781 L 176.085938 262.011719 Z M 102.507812 172.984375"/></clipPath><clipPath id="b2785a8c56"><path clip-rule="nonzero" d="M 102.507812 172.984375 L 162.054688 123.773438 L 235.632812 212.800781 L 176.085938 262.011719 Z M 102.507812 172.984375"/></clipPath><clipPath id="9cf97a303b"><path clip-rule="nonzero" d="M 161 126 L 243 126 L 243 211 L 161 211 Z M 161 126"/></clipPath><clipPath id="d2fd5f0fa1"><path clip-rule="nonzero" d="M 145.316406 137.601562 L 204.863281 88.390625 L 278.441406 177.421875 L 218.898438 226.632812 Z M 145.316406 137.601562"/></clipPath><clipPath id="2252b8acff"><path clip-rule="nonzero" d="M 145.316406 137.601562 L 204.863281 88.390625 L 278.441406 177.421875 L 218.898438 226.632812 Z M 145.316406 137.601562"/></clipPath></defs><g clip-path="url(#3f6ed2281b)"><g clip-path="url(#b63bae7aa6)"><path fill-rule="nonzero" fill-opacity="1" d="M 96.726562 84.402344 L 278.273438 84.402344 L 278.273438 265.949219 L 96.726562 265.949219 Z M 96.726562 84.402344" fill="#545454"/></g></g><g clip-path="url(#375fc5892b)"><g clip-path="url(#0e23b033e9)"><g clip-path="url(#b2785a8c56)"><path fill-rule="nonzero" fill-opacity="1" d="M 199.246094 168.925781 L 130.609375 162.050781 C 117.351562 160.722656 113.671875 186.488281 129.394531 187.789062 L 172.144531 191.324219 L 166.488281 234.222656 C 164.765625 247.289062 190.273438 250.09375 191.742188 236.800781 Z M 199.246094 168.925781" fill="#c1ff72"/></g></g></g><g clip-path="url(#9cf97a303b)"><g clip-path="url(#d2fd5f0fa1)"><g clip-path="url(#2252b8acff)"><path fill-rule="nonzero" fill-opacity="1" d="M 242.058594 133.542969 L 173.417969 126.671875 C 160.160156 125.34375 156.480469 151.109375 172.203125 152.40625 L 214.957031 155.941406 L 209.296875 198.84375 C 207.574219 211.90625 233.082031 214.710938 234.554688 201.417969 Z M 242.058594 133.542969" fill="#c1ff72"/></g></g></g></svg>